<svg width="16" height="16" xmlns="http://www.w3.org/2000/svg">

 <g>
  <title>background</title>
  <rect fill="none" id="canvas_background" height="402" width="582" y="-1" x="-1"/>
 </g>
 <g>
  <title>Layer 1</title>
  <ellipse ry="6.793363" rx="6.793363" id="svg_2" cy="7.889042" cx="8" stroke-opacity="null" stroke-width="null" stroke="null" fill="#35a7a1"/>
  <path fill="#ffffff" stroke="null" id="svg_1" d="m4.857178,8.518375c-0.391474,0.377002 -0.813751,2.376355 -0.813751,2.536541c0,0.280999 0.22738,0.539345 0.560049,0.539345c0.166335,0 2.242436,-0.406666 2.63391,-0.783669l3.2046,-3.086134l-2.380208,-2.292217l-3.2046,3.086134zm5.346787,-4.474948c-0.337149,0 -0.811511,0.10733 -1.199065,0.480557l-0.159054,0.153174l2.380208,2.292217l0.159054,-0.153174c0.356751,-0.343563 0.499004,-0.779893 0.499004,-1.154738c0,-0.893695 -0.752706,-1.618036 -1.680147,-1.618036z"/>
 </g>
</svg>